<ttFont>
<head>
    <!-- Most of this table will be recalculated by the compiler -->
    <tableVersion value="1.0"/>
    <fontRevision value="2.0"/>
    <checkSumAdjustment value="0x4374024a"/>
    <magicNumber value="0x5f0f3cf5"/>
    <flags value="00000000 00000111"/>
    <unitsPerEm value="1000"/>
    <created value="Wed May 24 18:23:34 2017"/>
    <modified value="Thu Sep 26 20:07:30 2019"/>
    <xMin value="-379"/>
    <yMin value="-1518"/>
    <xMax value="5037"/>
    <yMax value="1981"/>
    <macStyle value="00000000 00000001"/>
    <lowestRecPPEM value="6"/>
    <fontDirectionHint value="2"/>
    <indexToLocFormat value="0"/>
    <glyphDataFormat value="0"/>
  </head>
    <TTGlyph name="glyph00001" xMin="-97" yMin="-196" xMax="95" yMax="1">
      <contour>
        <pt x="-5" y="-196" on="1"/>
        <pt x="-30" y="-171" on="0"/>
        <pt x="-60" y="-144" on="0"/>
        <pt x="-82" y="-125" on="0"/>
        <pt x="-97" y="-115" on="1"/>
        <pt x="-97" y="-105" on="1"/>
        <pt x="-90" y="-94" on="0"/>
        <pt x="-64" y="-62" on="0"/>
        <pt x="-33" y="-29" on="0"/>
        <pt x="-7" y="-3" on="0"/>
        <pt x="-1" y="1" on="1"/>
        <pt x="9" y="1" on="1"/>
        <pt x="50" y="-25" on="0"/>
        <pt x="95" y="-67" on="0"/>
        <pt x="95" y="-91" on="1"/>
        <pt x="95" y="-116" on="0"/>
        <pt x="38" y="-172" on="0"/>
        <pt x="3" y="-196" on="1"/>
      </contour>
    </TTGlyph>
    <TTGlyph name="glyph00002" xMin="-97" yMin="-196" xMax="95" yMax="1">
      <contour>
        <pt x="-5" y="-196" on="1"/>
        <pt x="-37" y="-164" on="0"/>
        <pt x="-75" y="-131" on="0"/>
        <pt x="-97" y="-115" on="1"/>
        <pt x="-97" y="-105" on="1"/>
        <pt x="-90" y="-94" on="0"/>
        <pt x="-64" y="-62" on="0"/>
        <pt x="-33" y="-29" on="0"/>
        <pt x="-7" y="-3" on="0"/>
        <pt x="-1" y="1" on="1"/>
        <pt x="9" y="1" on="1"/>
        <pt x="50" y="-25" on="0"/>
        <pt x="95" y="-67" on="0"/>
        <pt x="95" y="-91" on="1"/>
        <pt x="95" y="-116" on="0"/>
        <pt x="38" y="-172" on="0"/>
        <pt x="3" y="-196" on="1"/>
      </contour>
    </TTGlyph>
    <TTGlyph name="glyph00003" xMin="91" yMin="101" xMax="236" yMax="958">
      <contour>
        <pt x="117" y="101" on="1"/>
        <pt x="91" y="107" on="1"/>
        <pt x="95" y="126" on="0"/>
        <pt x="109" y="233" on="0"/>
        <pt x="113" y="334" on="1"/>
        <pt x="126" y="621" on="1"/>
        <pt x="129" y="677" on="0"/>
        <pt x="138" y="759" on="0"/>
        <pt x="156" y="831" on="0"/>
        <pt x="187" y="908" on="0"/>
        <pt x="211" y="958" on="1"/>
        <pt x="236" y="950" on="1"/>
        <pt x="229" y="927" on="0"/>
        <pt x="213" y="826" on="0"/>
        <pt x="208" y="730" on="1"/>
        <pt x="192" y="433" on="1"/>
        <pt x="188" y="347" on="0"/>
        <pt x="149" y="175" on="0"/>
      </contour>
    </TTGlyph>
    <TTGlyph name="glyph00004" xMin="111" yMin="0" xMax="360" yMax="915">
      <contour>
        <pt x="267" y="0" on="1"/>
        <pt x="185" y="0" on="0"/>
        <pt x="111" y="111" on="0"/>
        <pt x="111" y="238" on="1"/>
        <pt x="111" y="262" on="0"/>
        <pt x="112" y="310" on="0"/>
        <pt x="115" y="371" on="0"/>
        <pt x="119" y="456" on="0"/>
        <pt x="122" y="517" on="1"/>
        <pt x="126" y="600" on="0"/>
        <pt x="140" y="735" on="0"/>
        <pt x="169" y="855" on="0"/>
        <pt x="196" y="915" on="1"/>
        <pt x="222" y="908" on="1"/>
        <pt x="217" y="885" on="0"/>
        <pt x="204" y="787" on="0"/>
        <pt x="192" y="658" on="0"/>
        <pt x="184" y="512" on="0"/>
        <pt x="184" y="441" on="1"/>
        <pt x="184" y="329" on="0"/>
        <pt x="248" y="228" on="0"/>
        <pt x="316" y="228" on="1"/>
        <pt x="340" y="228" on="0"/>
        <pt x="360" y="177" on="0"/>
        <pt x="360" y="131" on="1"/>
        <pt x="360" y="72" on="0"/>
        <pt x="314" y="0" on="0"/>
      </contour>
    </TTGlyph>
    <TTGlyph name="glyph00005" xMin="48" yMin="-27" xMax="1179" yMax="485">
      <contour>
        <pt x="394" y="-27" on="1"/>
        <pt x="323" y="-27" on="0"/>
        <pt x="197" y="-6" on="0"/>
        <pt x="102" y="46" on="0"/>
        <pt x="48" y="135" on="0"/>
        <pt x="48" y="203" on="1"/>
        <pt x="48" y="286" on="0"/>
        <pt x="80" y="388" on="1"/>
        <pt x="115" y="383" on="1"/>
        <pt x="114" y="374" on="0"/>
        <pt x="111" y="355" on="0"/>
        <pt x="111" y="335" on="1"/>
        <pt x="113" y="249" on="0"/>
        <pt x="194" y="222" on="1"/>
        <pt x="277" y="195" on="0"/>
        <pt x="431" y="195" on="1"/>
        <pt x="515" y="195" on="0"/>
        <pt x="681" y="216" on="0"/>
        <pt x="831" y="252" on="0"/>
        <pt x="956" y="296" on="0"/>
        <pt x="999" y="320" on="1"/>
        <pt x="1094" y="371" on="0"/>
        <pt x="1146" y="485" on="1"/>
        <pt x="1179" y="479" on="1"/>
        <pt x="1130" y="274" on="0"/>
        <pt x="1039" y="179" on="1"/>
        <pt x="989" y="127" on="0"/>
        <pt x="837" y="49" on="0"/>
        <pt x="658" y="-2" on="0"/>
        <pt x="475" y="-27" on="0"/>
      </contour>
    </TTGlyph>
    <TTGlyph name="glyph00006" xMin="48" yMin="-27" xMax="1367" yMax="485">
      <contour>
        <pt x="394" y="-27" on="1"/>
        <pt x="323" y="-27" on="0"/>
        <pt x="197" y="-6" on="0"/>
        <pt x="102" y="46" on="0"/>
        <pt x="48" y="135" on="0"/>
        <pt x="48" y="203" on="1"/>
        <pt x="48" y="286" on="0"/>
        <pt x="80" y="388" on="1"/>
        <pt x="115" y="383" on="1"/>
        <pt x="114" y="374" on="0"/>
        <pt x="111" y="355" on="0"/>
        <pt x="111" y="335" on="1"/>
        <pt x="113" y="249" on="0"/>
        <pt x="194" y="222" on="1"/>
        <pt x="277" y="195" on="0"/>
        <pt x="431" y="195" on="1"/>
        <pt x="516" y="195" on="0"/>
        <pt x="689" y="215" on="0"/>
        <pt x="849" y="250" on="0"/>
        <pt x="982" y="295" on="0"/>
        <pt x="1027" y="319" on="1"/>
        <pt x="1124" y="371" on="0"/>
        <pt x="1176" y="485" on="1"/>
        <pt x="1209" y="479" on="1"/>
        <pt x="1198" y="437" on="1"/>
        <pt x="1217" y="423" on="0"/>
        <pt x="1286" y="410" on="0"/>
        <pt x="1327" y="410" on="1"/>
        <pt x="1367" y="410" on="0"/>
        <pt x="1367" y="330" on="1"/>
        <pt x="1367" y="289" on="0"/>
        <pt x="1344" y="241" on="0"/>
        <pt x="1310" y="220" on="0"/>
        <pt x="1293" y="220" on="1"/>
        <pt x="1232" y="220" on="0"/>
        <pt x="1169" y="281" on="0"/>
        <pt x="1161" y="327" on="1"/>
        <pt x="1123" y="240" on="0"/>
        <pt x="1016" y="124" on="0"/>
        <pt x="864" y="48" on="0"/>
        <pt x="759" y="20" on="1"/>
        <pt x="582" y="-27" on="0"/>
      </contour>
    </TTGlyph>
    <TTGlyph name="glyph00007" xMin="18" yMin="-373" xMax="889" yMax="760">
      <contour>
        <pt x="355" y="-373" on="1"/>
        <pt x="250" y="-373" on="0"/>
        <pt x="99" y="-287" on="0"/>
        <pt x="18" y="-134" on="0"/>
        <pt x="18" y="-35" on="1"/>
        <pt x="18" y="102" on="0"/>
        <pt x="120" y="317" on="0"/>
        <pt x="305" y="499" on="0"/>
        <pt x="430" y="584" on="1"/>
        <pt x="421" y="587" on="0"/>
        <pt x="381" y="592" on="0"/>
        <pt x="331" y="595" on="0"/>
        <pt x="288" y="597" on="0"/>
        <pt x="276" y="597" on="1"/>
        <pt x="224" y="597" on="0"/>
        <pt x="173" y="577" on="0"/>
        <pt x="156" y="542" on="1"/>
        <pt x="123" y="552" on="1"/>
        <pt x="156" y="655" on="0"/>
        <pt x="209" y="708" on="1"/>
        <pt x="261" y="760" on="0"/>
        <pt x="379" y="760" on="1"/>
        <pt x="419" y="760" on="0"/>
        <pt x="514" y="747" on="0"/>
        <pt x="605" y="729" on="0"/>
        <pt x="637" y="719" on="1"/>
        <pt x="639" y="705" on="1"/>
        <pt x="593" y="618" on="0"/>
        <pt x="503" y="563" on="1"/>
        <pt x="457" y="535" on="0"/>
        <pt x="370" y="473" on="0"/>
        <pt x="329" y="439" on="1"/>
        <pt x="275" y="395" on="0"/>
        <pt x="190" y="287" on="0"/>
        <pt x="141" y="166" on="0"/>
        <pt x="141" y="100" on="1"/>
        <pt x="141" y="37" on="0"/>
        <pt x="190" y="-53" on="0"/>
        <pt x="273" y="-111" on="0"/>
        <pt x="377" y="-139" on="0"/>
        <pt x="433" y="-139" on="1"/>
        <pt x="582" y="-139" on="0"/>
        <pt x="793" y="5" on="0"/>
        <pt x="856" y="135" on="1"/>
        <pt x="889" y="124" on="1"/>
        <pt x="792" y="-124" on="0"/>
        <pt x="519" y="-373" on="0"/>
      </contour>
    </TTGlyph>
    <TTGlyph name="glyph00008" xMin="18" yMin="-371" xMax="847" yMax="1126">
      <contour>
        <pt x="287" y="-371" on="1"/>
        <pt x="207" y="-371" on="0"/>
        <pt x="103" y="-322" on="0"/>
        <pt x="43" y="-242" on="0"/>
        <pt x="18" y="-143" on="0"/>
        <pt x="18" y="-94" on="1"/>
        <pt x="18" y="13" on="0"/>
        <pt x="80" y="225" on="0"/>
        <pt x="131" y="322" on="1"/>
        <pt x="164" y="310" on="1"/>
        <pt x="139" y="253" on="0"/>
        <pt x="106" y="132" on="0"/>
        <pt x="106" y="67" on="1"/>
        <pt x="106" y="-12" on="0"/>
        <pt x="169" y="-101" on="0"/>
        <pt x="275" y="-136" on="0"/>
        <pt x="337" y="-136" on="1"/>
        <pt x="428" y="-136" on="0"/>
        <pt x="559" y="-84" on="0"/>
        <pt x="643" y="-6" on="0"/>
        <pt x="665" y="32" on="1"/>
        <pt x="708" y="107" on="0"/>
        <pt x="716" y="295" on="1"/>
        <pt x="724" y="470" on="0"/>
        <pt x="733" y="687" on="0"/>
        <pt x="738" y="794" on="0"/>
        <pt x="739" y="803" on="1"/>
        <pt x="744" y="855" on="0"/>
        <pt x="753" y="929" on="0"/>
        <pt x="770" y="994" on="0"/>
        <pt x="798" y="1071" on="0"/>
        <pt x="820" y="1126" on="1"/>
        <pt x="847" y="1120" on="1"/>
        <pt x="839" y="1091" on="0"/>
        <pt x="820" y="920" on="0"/>
        <pt x="814" y="776" on="1"/>
        <pt x="811" y="713" on="0"/>
        <pt x="808" y="622" on="0"/>
        <pt x="805" y="549" on="0"/>
        <pt x="801" y="481" on="0"/>
        <pt x="798" y="440" on="1"/>
        <pt x="790" y="334" on="0"/>
        <pt x="771" y="185" on="0"/>
        <pt x="745" y="75" on="0"/>
        <pt x="710" y="-19" on="0"/>
        <pt x="687" y="-72" on="1"/>
        <pt x="648" y="-161" on="0"/>
        <pt x="532" y="-296" on="0"/>
        <pt x="380" y="-371" on="0"/>
      </contour>
    </TTGlyph>
    <TTGlyph name="glyph00009" xMin="18" yMin="-371" xMax="979" yMax="1126">
      <contour>
        <pt x="287" y="-371" on="1"/>
        <pt x="207" y="-371" on="0"/>
        <pt x="103" y="-322" on="0"/>
        <pt x="43" y="-242" on="0"/>
        <pt x="18" y="-143" on="0"/>
        <pt x="18" y="-94" on="1"/>
        <pt x="18" y="14" on="0"/>
        <pt x="79" y="225" on="0"/>
        <pt x="131" y="322" on="1"/>
        <pt x="164" y="310" on="1"/>
        <pt x="139" y="253" on="0"/>
        <pt x="106" y="132" on="0"/>
        <pt x="106" y="67" on="1"/>
        <pt x="106" y="-12" on="0"/>
        <pt x="169" y="-101" on="0"/>
        <pt x="275" y="-136" on="0"/>
        <pt x="337" y="-136" on="1"/>
        <pt x="428" y="-136" on="0"/>
        <pt x="559" y="-84" on="0"/>
        <pt x="643" y="-6" on="0"/>
        <pt x="665" y="32" on="1"/>
        <pt x="708" y="107" on="0"/>
        <pt x="716" y="295" on="1"/>
        <pt x="724" y="470" on="0"/>
        <pt x="733" y="687" on="0"/>
        <pt x="738" y="794" on="0"/>
        <pt x="739" y="803" on="1"/>
        <pt x="745" y="874" on="1"/>
        <pt x="748" y="909" on="0"/>
        <pt x="779" y="1025" on="0"/>
        <pt x="820" y="1126" on="1"/>
        <pt x="847" y="1120" on="1"/>
        <pt x="841" y="1091" on="0"/>
        <pt x="828" y="1001" on="0"/>
        <pt x="817" y="862" on="0"/>
        <pt x="813" y="757" on="1"/>
        <pt x="812" y="735" on="0"/>
        <pt x="809" y="693" on="0"/>
        <pt x="809" y="670" on="1"/>
        <pt x="809" y="595" on="0"/>
        <pt x="873" y="525" on="0"/>
        <pt x="935" y="525" on="1"/>
        <pt x="959" y="525" on="0"/>
        <pt x="979" y="474" on="0"/>
        <pt x="979" y="428" on="1"/>
        <pt x="979" y="370" on="0"/>
        <pt x="933" y="297" on="0"/>
        <pt x="886" y="297" on="1"/>
        <pt x="821" y="297" on="0"/>
        <pt x="791" y="350" on="1"/>
        <pt x="790" y="339" on="1"/>
        <pt x="777" y="194" on="0"/>
        <pt x="702" y="-63" on="0"/>
        <pt x="576" y="-260" on="0"/>
        <pt x="401" y="-371" on="0"/>
      </contour>
    </TTGlyph>
    <TTGlyph name="glyph00010" xMin="48" yMin="-27" xMax="1397" yMax="495">
      <contour>
        <pt x="370" y="-27" on="1"/>
        <pt x="275" y="-27" on="0"/>
        <pt x="129" y="21" on="0"/>
        <pt x="48" y="122" on="0"/>
        <pt x="48" y="203" on="1"/>
        <pt x="48" y="286" on="0"/>
        <pt x="80" y="388" on="1"/>
        <pt x="115" y="383" on="1"/>
        <pt x="114" y="374" on="0"/>
        <pt x="111" y="355" on="0"/>
        <pt x="111" y="335" on="1"/>
        <pt x="111" y="249" on="0"/>
        <pt x="194" y="222" on="1"/>
        <pt x="277" y="195" on="0"/>
        <pt x="431" y="195" on="1"/>
        <pt x="603" y="195" on="0"/>
        <pt x="902" y="255" on="0"/>
        <pt x="1014" y="303" on="1"/>
        <pt x="1070" y="327" on="0"/>
        <pt x="1164" y="400" on="0"/>
        <pt x="1201" y="449" on="1"/>
        <pt x="1221" y="476" on="0"/>
        <pt x="1243" y="495" on="0"/>
        <pt x="1258" y="495" on="1"/>
        <pt x="1280" y="495" on="0"/>
        <pt x="1323" y="474" on="0"/>
        <pt x="1357" y="474" on="1"/>
        <pt x="1397" y="474" on="0"/>
        <pt x="1397" y="393" on="1"/>
        <pt x="1397" y="338" on="0"/>
        <pt x="1354" y="284" on="0"/>
        <pt x="1323" y="284" on="1"/>
        <pt x="1285" y="284" on="0"/>
        <pt x="1240" y="305" on="0"/>
        <pt x="1211" y="326" on="0"/>
        <pt x="1196" y="326" on="1"/>
        <pt x="1186" y="326" on="0"/>
        <pt x="1172" y="313" on="0"/>
        <pt x="1164" y="303" on="1"/>
        <pt x="1103" y="218" on="0"/>
        <pt x="1005" y="119" on="0"/>
        <pt x="952" y="90" on="1"/>
        <pt x="903" y="64" on="0"/>
        <pt x="777" y="21" on="0"/>
        <pt x="698" y="5" on="1"/>
        <pt x="619" y="-11" on="0"/>
        <pt x="456" y="-27" on="0"/>
      </contour>
    </TTGlyph>
    <TTGlyph name="glyph00011" xMin="111" yMin="0" xMax="353" yMax="915">
      <contour>
        <pt x="260" y="0" on="1"/>
        <pt x="187" y="0" on="0"/>
        <pt x="111" y="120" on="0"/>
        <pt x="111" y="238" on="1"/>
        <pt x="111" y="291" on="0"/>
        <pt x="118" y="455" on="0"/>
        <pt x="125" y="565" on="1"/>
        <pt x="132" y="675" on="0"/>
        <pt x="167" y="850" on="0"/>
        <pt x="196" y="915" on="1"/>
        <pt x="222" y="908" on="1"/>
        <pt x="216" y="879" on="0"/>
        <pt x="205" y="790" on="0"/>
        <pt x="195" y="685" on="0"/>
        <pt x="188" y="577" on="0"/>
        <pt x="184" y="481" on="0"/>
        <pt x="184" y="446" on="1"/>
        <pt x="184" y="342" on="0"/>
        <pt x="211" y="285" on="1"/>
        <pt x="238" y="228" on="0"/>
        <pt x="309" y="228" on="1"/>
        <pt x="333" y="228" on="0"/>
        <pt x="353" y="176" on="0"/>
        <pt x="353" y="128" on="1"/>
        <pt x="353" y="58" on="0"/>
        <pt x="296" y="0" on="0"/>
      </contour>
    </TTGlyph>
    <TTGlyph name="glyph00012" xMin="-244" yMin="-59" xMax="135" yMax="923">
      <contour>
        <pt x="-120" y="-59" on="1"/>
        <pt x="-244" y="-6" on="1"/>
        <pt x="-239" y="13" on="1"/>
        <pt x="-145" y="20" on="0"/>
        <pt x="-85" y="57" on="1"/>
        <pt x="-45" y="81" on="0"/>
        <pt x="-6" y="124" on="0"/>
        <pt x="8" y="184" on="0"/>
        <pt x="10" y="235" on="1"/>
        <pt x="24" y="573" on="1"/>
        <pt x="26" y="631" on="0"/>
        <pt x="35" y="713" on="0"/>
        <pt x="52" y="785" on="0"/>
        <pt x="85" y="866" on="0"/>
        <pt x="111" y="923" on="1"/>
        <pt x="135" y="914" on="1"/>
        <pt x="112" y="847" on="0"/>
        <pt x="101" y="567" on="1"/>
        <pt x="91" y="290" on="0"/>
        <pt x="57" y="180" on="1"/>
        <pt x="41" y="125" on="0"/>
        <pt x="5" y="49" on="0"/>
        <pt x="-12" y="25" on="1"/>
        <pt x="-27" y="4" on="0"/>
        <pt x="-68" y="-34" on="0"/>
        <pt x="-106" y="-59" on="0"/>
      </contour>
    </TTGlyph>
    <TTGlyph name="glyph00013" xMin="-244" yMin="-57" xMax="266" yMax="923">
      <contour>
        <pt x="-122" y="-57" on="1"/>
        <pt x="-244" y="-6" on="1"/>
        <pt x="-239" y="13" on="1"/>
        <pt x="-174" y="18" on="0"/>
        <pt x="-71" y="60" on="0"/>
        <pt x="-44" y="85" on="1"/>
        <pt x="-21" y="107" on="0"/>
        <pt x="0" y="144" on="0"/>
        <pt x="8" y="198" on="0"/>
        <pt x="10" y="245" on="1"/>
        <pt x="27" y="591" on="1"/>
        <pt x="30" y="650" on="0"/>
        <pt x="38" y="735" on="0"/>
        <pt x="52" y="807" on="0"/>
        <pt x="76" y="878" on="0"/>
        <pt x="94" y="923" on="1"/>
        <pt x="119" y="915" on="1"/>
        <pt x="112" y="885" on="0"/>
        <pt x="101" y="790" on="0"/>
        <pt x="94" y="680" on="0"/>
        <pt x="90" y="574" on="0"/>
        <pt x="90" y="532" on="1"/>
        <pt x="90" y="450" on="0"/>
        <pt x="124" y="359" on="0"/>
        <pt x="184" y="324" on="0"/>
        <pt x="222" y="324" on="1"/>
        <pt x="246" y="324" on="0"/>
        <pt x="266" y="272" on="0"/>
        <pt x="266" y="226" on="1"/>
        <pt x="266" y="168" on="0"/>
        <pt x="219" y="96" on="0"/>
        <pt x="173" y="96" on="1"/>
        <pt x="83" y="96" on="0"/>
        <pt x="47" y="162" on="1"/>
        <pt x="28" y="90" on="0"/>
        <pt x="-26" y="2" on="0"/>
        <pt x="-54" y="-21" on="1"/>
        <pt x="-76" y="-39" on="0"/>
        <pt x="-105" y="-57" on="0"/>
      </contour>
    </TTGlyph>
    <TTGlyph name="glyph00014" xMin="-40" yMin="0" xMax="242" yMax="722">
      <contour>
        <pt x="0" y="0" on="1"/>
        <pt x="-15" y="0" on="0"/>
        <pt x="-40" y="37" on="0"/>
        <pt x="-40" y="80" on="1"/>
        <pt x="-40" y="122" on="0"/>
        <pt x="-17" y="170" on="0"/>
        <pt x="18" y="190" on="0"/>
        <pt x="34" y="190" on="1"/>
        <pt x="92" y="190" on="0"/>
        <pt x="119" y="220" on="1"/>
        <pt x="133" y="235" on="0"/>
        <pt x="145" y="307" on="0"/>
        <pt x="146" y="365" on="1"/>
        <pt x="148" y="448" on="1"/>
        <pt x="149" y="470" on="0"/>
        <pt x="153" y="526" on="0"/>
        <pt x="157" y="542" on="1"/>
        <pt x="165" y="577" on="0"/>
        <pt x="179" y="627" on="0"/>
        <pt x="200" y="682" on="0"/>
        <pt x="217" y="722" on="1"/>
        <pt x="242" y="715" on="1"/>
        <pt x="234" y="672" on="0"/>
        <pt x="221" y="536" on="0"/>
        <pt x="216" y="441" on="1"/>
        <pt x="207" y="251" on="0"/>
        <pt x="152" y="126" on="1"/>
        <pt x="97" y="0" on="0"/>
      </contour>
    </TTGlyph>
    <TTGlyph name="glyph00015" xMin="-40" yMin="0" xMax="406" yMax="721">
      <contour>
        <pt x="0" y="0" on="1"/>
        <pt x="-40" y="0" on="0"/>
        <pt x="-40" y="79" on="1"/>
        <pt x="-40" y="123" on="0"/>
        <pt x="-6" y="190" on="0"/>
        <pt x="34" y="190" on="1"/>
        <pt x="82" y="190" on="0"/>
        <pt x="114" y="225" on="1"/>
        <pt x="146" y="260" on="0"/>
        <pt x="155" y="364" on="1"/>
        <pt x="159" y="411" on="0"/>
        <pt x="164" y="466" on="0"/>
        <pt x="167" y="498" on="0"/>
        <pt x="168" y="509" on="1"/>
        <pt x="174" y="555" on="0"/>
        <pt x="188" y="625" on="0"/>
        <pt x="207" y="688" on="0"/>
        <pt x="220" y="721" on="1"/>
        <pt x="246" y="715" on="1"/>
        <pt x="239" y="681" on="0"/>
        <pt x="232" y="588" on="0"/>
        <pt x="232" y="547" on="1"/>
        <pt x="232" y="504" on="1"/>
        <pt x="232" y="444" on="0"/>
        <pt x="253" y="352" on="0"/>
        <pt x="309" y="301" on="0"/>
        <pt x="362" y="301" on="1"/>
        <pt x="388" y="301" on="0"/>
        <pt x="406" y="257" on="0"/>
        <pt x="406" y="214" on="1"/>
        <pt x="406" y="141" on="0"/>
        <pt x="349" y="73" on="0"/>
        <pt x="313" y="73" on="1"/>
        <pt x="259" y="73" on="0"/>
        <pt x="190" y="130" on="0"/>
        <pt x="173" y="196" on="1"/>
        <pt x="169" y="196" on="1"/>
        <pt x="150" y="109" on="0"/>
        <pt x="65" y="0" on="0"/>
      </contour>
    </TTGlyph>
    <TTGlyph name="glyph00016" xMin="91" yMin="4" xMax="236" yMax="861">
      <contour>
        <pt x="117" y="4" on="1"/>
        <pt x="91" y="10" on="1"/>
        <pt x="95" y="29" on="0"/>
        <pt x="109" y="136" on="0"/>
        <pt x="113" y="237" on="1"/>
        <pt x="126" y="524" on="1"/>
        <pt x="129" y="583" on="0"/>
        <pt x="138" y="666" on="0"/>
        <pt x="156" y="735" on="0"/>
        <pt x="187" y="810" on="0"/>
        <pt x="211" y="861" on="1"/>
        <pt x="236" y="853" on="1"/>
        <pt x="229" y="830" on="0"/>
        <pt x="213" y="729" on="0"/>
        <pt x="208" y="633" on="1"/>
        <pt x="192" y="336" on="1"/>
        <pt x="188" y="250" on="0"/>
        <pt x="149" y="78" on="0"/>
      </contour>
    </TTGlyph>
    <TTGlyph name="glyph00017" xMin="-45" yMin="0" xMax="203" yMax="319">
      <contour>
        <pt x="0" y="0" on="1"/>
        <pt x="-19" y="0" on="0"/>
        <pt x="-45" y="46" on="0"/>
        <pt x="-45" y="101" on="1"/>
        <pt x="-45" y="157" on="0"/>
        <pt x="2" y="228" on="0"/>
        <pt x="49" y="228" on="1"/>
        <pt x="90" y="228" on="0"/>
        <pt x="156" y="273" on="0"/>
        <pt x="175" y="319" on="1"/>
        <pt x="203" y="313" on="1"/>
        <pt x="195" y="251" on="0"/>
        <pt x="160" y="139" on="0"/>
        <pt x="109" y="51" on="0"/>
        <pt x="41" y="0" on="0"/>
      </contour>
    </TTGlyph>
    <TTGlyph name="glyph00018" xMin="-45" yMin="0" xMax="203" yMax="319">
      <contour>
        <pt x="0" y="0" on="1"/>
        <pt x="-19" y="0" on="0"/>
        <pt x="-45" y="46" on="0"/>
        <pt x="-45" y="101" on="1"/>
        <pt x="-45" y="157" on="0"/>
        <pt x="2" y="228" on="0"/>
        <pt x="49" y="228" on="1"/>
        <pt x="90" y="228" on="0"/>
        <pt x="156" y="273" on="0"/>
        <pt x="175" y="319" on="1"/>
        <pt x="203" y="313" on="1"/>
        <pt x="195" y="251" on="0"/>
        <pt x="160" y="139" on="0"/>
        <pt x="109" y="51" on="0"/>
        <pt x="41" y="0" on="0"/>
      </contour>
    </TTGlyph>
    <TTGlyph name="glyph00019" xMin="19" yMin="-371" xMax="890" yMax="783">
      <contour>
        <pt x="356" y="-371" on="1"/>
        <pt x="255" y="-371" on="0"/>
        <pt x="103" y="-290" on="0"/>
        <pt x="19" y="-138" on="0"/>
        <pt x="19" y="-33" on="1"/>
        <pt x="19" y="133" on="0"/>
        <pt x="104" y="275" on="1"/>
        <pt x="187" y="415" on="0"/>
        <pt x="434" y="585" on="1"/>
        <pt x="372" y="596" on="0"/>
        <pt x="253" y="607" on="0"/>
        <pt x="185" y="609" on="1"/>
        <pt x="179" y="623" on="1"/>
        <pt x="188" y="651" on="0"/>
        <pt x="204" y="688" on="0"/>
        <pt x="212" y="705" on="1"/>
        <pt x="234" y="752" on="0"/>
        <pt x="256" y="783" on="0"/>
        <pt x="269" y="783" on="1"/>
        <pt x="275" y="783" on="0"/>
        <pt x="291" y="776" on="0"/>
        <pt x="291" y="768" on="1"/>
        <pt x="291" y="762" on="1"/>
        <pt x="299" y="762" on="1"/>
        <pt x="340" y="762" on="0"/>
        <pt x="445" y="754" on="0"/>
        <pt x="548" y="741" on="0"/>
        <pt x="626" y="727" on="0"/>
        <pt x="641" y="721" on="1"/>
        <pt x="643" y="706" on="1"/>
        <pt x="598" y="619" on="0"/>
        <pt x="505" y="562" on="1"/>
        <pt x="459" y="534" on="0"/>
        <pt x="371" y="471" on="0"/>
        <pt x="330" y="437" on="1"/>
        <pt x="248" y="370" on="0"/>
        <pt x="142" y="200" on="0"/>
        <pt x="142" y="102" on="1"/>
        <pt x="142" y="39" on="0"/>
        <pt x="191" y="-51" on="0"/>
        <pt x="274" y="-109" on="0"/>
        <pt x="378" y="-137" on="0"/>
        <pt x="434" y="-137" on="1"/>
        <pt x="583" y="-137" on="0"/>
        <pt x="794" y="7" on="0"/>
        <pt x="857" y="137" on="1"/>
        <pt x="890" y="126" on="1"/>
        <pt x="793" y="-122" on="0"/>
        <pt x="520" y="-371" on="0"/>
      </contour>
    </TTGlyph>
    <TTGlyph name="glyph00020" xMin="-45" yMin="0" xMax="164" yMax="256">
      <contour>
        <pt x="0" y="0" on="1"/>
        <pt x="-18" y="0" on="0"/>
        <pt x="-45" y="49" on="0"/>
        <pt x="-45" y="101" on="1"/>
        <pt x="-45" y="151" on="0"/>
        <pt x="0" y="190" on="0"/>
        <pt x="34" y="190" on="1"/>
        <pt x="69" y="190" on="0"/>
        <pt x="119" y="217" on="0"/>
        <pt x="136" y="256" on="1"/>
        <pt x="164" y="250" on="1"/>
        <pt x="152" y="158" on="0"/>
        <pt x="105" y="48" on="0"/>
        <pt x="39" y="0" on="0"/>
      </contour>
    </TTGlyph>
    <TTGlyph name="glyph00021" xMin="-45" yMin="0" xMax="164" yMax="256">
      <contour>
        <pt x="0" y="0" on="1"/>
        <pt x="-18" y="0" on="0"/>
        <pt x="-45" y="49" on="0"/>
        <pt x="-45" y="101" on="1"/>
        <pt x="-45" y="151" on="0"/>
        <pt x="0" y="190" on="0"/>
        <pt x="34" y="190" on="1"/>
        <pt x="69" y="190" on="0"/>
        <pt x="119" y="217" on="0"/>
        <pt x="136" y="256" on="1"/>
        <pt x="164" y="250" on="1"/>
        <pt x="152" y="158" on="0"/>
        <pt x="105" y="48" on="0"/>
        <pt x="39" y="0" on="0"/>
      </contour>
    </TTGlyph>
    <TTGlyph name="glyph00022" xMin="-13" yMin="-46" xMax="595" yMax="367">
      <contour>
        <pt x="2" y="-46" on="1"/>
        <pt x="-2" y="-46" on="0"/>
        <pt x="-13" y="-40" on="0"/>
        <pt x="-13" y="-33" on="1"/>
        <pt x="-13" y="-20" on="0"/>
        <pt x="21" y="37" on="0"/>
        <pt x="55" y="79" on="1"/>
        <pt x="91" y="123" on="0"/>
        <pt x="228" y="228" on="0"/>
        <pt x="442" y="330" on="0"/>
        <pt x="590" y="367" on="1"/>
        <pt x="595" y="358" on="1"/>
        <pt x="594" y="353" on="0"/>
        <pt x="575" y="313" on="0"/>
        <pt x="549" y="264" on="0"/>
        <pt x="526" y="223" on="0"/>
        <pt x="520" y="215" on="1"/>
        <pt x="443" y="200" on="0"/>
        <pt x="292" y="154" on="0"/>
        <pt x="165" y="98" on="0"/>
        <pt x="123" y="67" on="1"/>
        <pt x="93" y="45" on="0"/>
        <pt x="57" y="5" on="0"/>
        <pt x="49" y="-12" on="1"/>
        <pt x="34" y="-46" on="0"/>
      </contour>
    </TTGlyph>
    <TTGlyph name="glyph00023" xMin="-44" yMin="0" xMax="351" yMax="355">
      <contour>
        <pt x="0" y="0" on="1"/>
        <pt x="-19" y="0" on="0"/>
        <pt x="-38" y="31" on="0"/>
        <pt x="-44" y="78" on="0"/>
        <pt x="-44" y="101" on="1"/>
        <pt x="-44" y="150" on="0"/>
        <pt x="-17" y="205" on="0"/>
        <pt x="27" y="228" on="0"/>
        <pt x="50" y="228" on="1"/>
        <pt x="91" y="228" on="0"/>
        <pt x="146" y="267" on="0"/>
        <pt x="168" y="298" on="1"/>
        <pt x="185" y="322" on="1"/>
        <pt x="197" y="339" on="0"/>
        <pt x="216" y="355" on="0"/>
        <pt x="231" y="355" on="1"/>
        <pt x="250" y="355" on="0"/>
        <pt x="271" y="345" on="1"/>
        <pt x="292" y="335" on="0"/>
        <pt x="311" y="335" on="1"/>
        <pt x="351" y="335" on="0"/>
        <pt x="351" y="255" on="1"/>
        <pt x="351" y="200" on="0"/>
        <pt x="310" y="145" on="0"/>
        <pt x="277" y="145" on="1"/>
        <pt x="254" y="145" on="0"/>
        <pt x="216" y="166" on="0"/>
        <pt x="190" y="187" on="1"/>
        <pt x="185" y="191" on="0"/>
        <pt x="179" y="191" on="1"/>
        <pt x="167" y="191" on="0"/>
        <pt x="141" y="128" on="1"/>
        <pt x="116" y="66" on="0"/>
        <pt x="83" y="33" on="1"/>
        <pt x="50" y="0" on="0"/>
      </contour>
    </TTGlyph>
    <TTGlyph name="glyph00024" xMin="-40" yMin="0" xMax="411" yMax="378">
      <contour>
        <pt x="0" y="0" on="1"/>
        <pt x="-13" y="0" on="0"/>
        <pt x="-27" y="18" on="1"/>
        <pt x="-40" y="34" on="0"/>
        <pt x="-40" y="80" on="1"/>
        <pt x="-40" y="136" on="0"/>
        <pt x="4" y="190" on="0"/>
        <pt x="34" y="190" on="1"/>
        <pt x="142" y="190" on="0"/>
        <pt x="212" y="300" on="1"/>
        <pt x="241" y="346" on="1"/>
        <pt x="252" y="364" on="0"/>
        <pt x="270" y="378" on="0"/>
        <pt x="284" y="378" on="1"/>
        <pt x="297" y="378" on="0"/>
        <pt x="322" y="366" on="1"/>
        <pt x="346" y="354" on="0"/>
        <pt x="371" y="354" on="1"/>
        <pt x="382" y="354" on="0"/>
        <pt x="411" y="324" on="0"/>
        <pt x="411" y="274" on="1"/>
        <pt x="411" y="219" on="0"/>
        <pt x="368" y="164" on="0"/>
        <pt x="337" y="164" on="1"/>
        <pt x="301" y="164" on="0"/>
        <pt x="270" y="183" on="1"/>
        <pt x="238" y="202" on="0"/>
        <pt x="225" y="202" on="1"/>
        <pt x="209" y="202" on="0"/>
        <pt x="182" y="149" on="1"/>
        <pt x="154" y="95" on="0"/>
        <pt x="110" y="48" on="1"/>
        <pt x="65" y="0" on="0"/>
      </contour>
    </TTGlyph>
    <TTGlyph name="glyph00025" xMin="-45" yMin="0" xMax="495" yMax="533">
      <contour>
        <pt x="0" y="0" on="1"/>
        <pt x="-19" y="0" on="0"/>
        <pt x="-45" y="47" on="0"/>
        <pt x="-45" y="101" on="1"/>
        <pt x="-45" y="141" on="0"/>
        <pt x="-25" y="190" on="0"/>
        <pt x="-12" y="203" on="1"/>
        <pt x="0" y="268" on="0"/>
        <pt x="43" y="383" on="0"/>
        <pt x="72" y="433" on="1"/>
        <pt x="130" y="533" on="0"/>
        <pt x="234" y="533" on="1"/>
        <pt x="265" y="533" on="0"/>
        <pt x="296" y="524" on="1"/>
        <pt x="388" y="497" on="0"/>
        <pt x="484" y="470" on="0"/>
        <pt x="491" y="468" on="1"/>
        <pt x="495" y="441" on="1"/>
        <pt x="490" y="433" on="0"/>
        <pt x="475" y="410" on="0"/>
        <pt x="448" y="370" on="0"/>
        <pt x="423" y="334" on="1"/>
        <pt x="341" y="213" on="0"/>
        <pt x="205" y="66" on="0"/>
        <pt x="75" y="0" on="0"/>
      </contour>
      <contour>
        <pt x="43" y="228" on="1"/>
        <pt x="60" y="228" on="1"/>
        <pt x="119" y="228" on="0"/>
        <pt x="234" y="249" on="0"/>
        <pt x="330" y="293" on="0"/>
        <pt x="360" y="328" on="1"/>
        <pt x="300" y="346" on="1"/>
        <pt x="277" y="353" on="0"/>
        <pt x="216" y="368" on="0"/>
        <pt x="190" y="368" on="1"/>
        <pt x="137" y="368" on="0"/>
        <pt x="102" y="339" on="1"/>
        <pt x="67" y="310" on="0"/>
      </contour>
    </TTGlyph>
    <TTGlyph name="glyph00026" xMin="-40" yMin="0" xMax="354" yMax="476">
      <contour>
        <pt x="0" y="0" on="1"/>
        <pt x="-40" y="0" on="0"/>
        <pt x="-40" y="79" on="1"/>
        <pt x="-40" y="123" on="0"/>
        <pt x="-6" y="190" on="0"/>
        <pt x="34" y="190" on="1"/>
        <pt x="70" y="190" on="0"/>
        <pt x="116" y="218" on="0"/>
        <pt x="140" y="261" on="0"/>
        <pt x="142" y="281" on="1"/>
        <pt x="145" y="307" on="0"/>
        <pt x="166" y="382" on="0"/>
        <pt x="194" y="455" on="0"/>
        <pt x="207" y="476" on="1"/>
        <pt x="232" y="471" on="1"/>
        <pt x="230" y="461" on="0"/>
        <pt x="227" y="438" on="0"/>
        <pt x="227" y="412" on="1"/>
        <pt x="227" y="366" on="0"/>
        <pt x="273" y="321" on="0"/>
        <pt x="310" y="321" on="1"/>
        <pt x="354" y="321" on="0"/>
        <pt x="354" y="217" on="1"/>
        <pt x="354" y="170" on="0"/>
        <pt x="323" y="115" on="0"/>
        <pt x="280" y="93" on="0"/>
        <pt x="260" y="93" on="1"/>
        <pt x="222" y="93" on="0"/>
        <pt x="162" y="137" on="0"/>
        <pt x="150" y="179" on="1"/>
        <pt x="139" y="136" on="0"/>
        <pt x="102" y="53" on="0"/>
        <pt x="43" y="0" on="0"/>
      </contour>
    </TTGlyph>
    <TTGlyph name="glyph00027" xMin="-40" yMin="0" xMax="398" yMax="476">
      <contour>
        <pt x="0" y="0" on="1"/>
        <pt x="-40" y="0" on="0"/>
        <pt x="-40" y="79" on="1"/>
        <pt x="-40" y="123" on="0"/>
        <pt x="-6" y="190" on="0"/>
        <pt x="34" y="190" on="1"/>
        <pt x="55" y="190" on="0"/>
        <pt x="82" y="198" on="0"/>
        <pt x="96" y="206" on="1"/>
        <pt x="105" y="211" on="0"/>
        <pt x="132" y="244" on="0"/>
        <pt x="133" y="252" on="1"/>
        <pt x="147" y="315" on="0"/>
        <pt x="170" y="396" on="0"/>
        <pt x="193" y="452" on="0"/>
        <pt x="207" y="476" on="1"/>
        <pt x="232" y="471" on="1"/>
        <pt x="229" y="457" on="0"/>
        <pt x="227" y="435" on="0"/>
        <pt x="227" y="421" on="1"/>
        <pt x="227" y="373" on="0"/>
        <pt x="291" y="321" on="0"/>
        <pt x="354" y="321" on="1"/>
        <pt x="398" y="321" on="0"/>
        <pt x="398" y="217" on="1"/>
        <pt x="398" y="170" on="0"/>
        <pt x="367" y="115" on="0"/>
        <pt x="324" y="93" on="0"/>
        <pt x="304" y="93" on="1"/>
        <pt x="188" y="93" on="0"/>
        <pt x="150" y="179" on="1"/>
        <pt x="138" y="129" on="0"/>
        <pt x="98" y="48" on="0"/>
        <pt x="40" y="0" on="0"/>
      </contour>
    </TTGlyph>
    <TTGlyph name="glyph00028" xMin="-45" yMin="0" xMax="390" yMax="514">
      <contour>
        <pt x="0" y="0" on="1"/>
        <pt x="-19" y="0" on="0"/>
        <pt x="-45" y="46" on="0"/>
        <pt x="-45" y="101" on="1"/>
        <pt x="-45" y="166" on="0"/>
        <pt x="7" y="228" on="0"/>
        <pt x="49" y="228" on="1"/>
        <pt x="106" y="228" on="0"/>
        <pt x="167" y="271" on="0"/>
        <pt x="176" y="315" on="1"/>
        <pt x="187" y="366" on="0"/>
        <pt x="221" y="479" on="0"/>
        <pt x="243" y="514" on="1"/>
        <pt x="268" y="509" on="1"/>
        <pt x="266" y="499" on="0"/>
        <pt x="263" y="476" on="0"/>
        <pt x="263" y="450" on="1"/>
        <pt x="263" y="404" on="0"/>
        <pt x="309" y="359" on="0"/>
        <pt x="346" y="359" on="1"/>
        <pt x="390" y="359" on="0"/>
        <pt x="390" y="255" on="1"/>
        <pt x="390" y="208" on="0"/>
        <pt x="359" y="153" on="0"/>
        <pt x="316" y="131" on="0"/>
        <pt x="296" y="131" on="1"/>
        <pt x="258" y="131" on="0"/>
        <pt x="198" y="175" on="0"/>
        <pt x="186" y="217" on="1"/>
        <pt x="153" y="105" on="0"/>
        <pt x="71" y="0" on="0"/>
      </contour>
    </TTGlyph>
    <TTGlyph name="glyph00029" xMin="-5" yMin="-35" xMax="537" yMax="294">
      <contour>
        <pt x="16" y="-35" on="1"/>
        <pt x="12" y="-35" on="0"/>
        <pt x="-5" y="-25" on="0"/>
        <pt x="-5" y="-16" on="1"/>
        <pt x="-5" y="3" on="0"/>
        <pt x="60" y="92" on="1"/>
        <pt x="102" y="150" on="0"/>
        <pt x="205" y="241" on="0"/>
        <pt x="325" y="294" on="0"/>
        <pt x="390" y="294" on="1"/>
        <pt x="416" y="294" on="0"/>
        <pt x="450" y="279" on="0"/>
        <pt x="480" y="264" on="0"/>
        <pt x="497" y="264" on="1"/>
        <pt x="511" y="264" on="0"/>
        <pt x="537" y="231" on="0"/>
        <pt x="537" y="184" on="1"/>
        <pt x="537" y="131" on="0"/>
        <pt x="494" y="74" on="0"/>
        <pt x="463" y="74" on="1"/>
        <pt x="436" y="74" on="0"/>
        <pt x="403" y="92" on="0"/>
        <pt x="374" y="115" on="0"/>
        <pt x="333" y="133" on="0"/>
        <pt x="298" y="133" on="1"/>
        <pt x="264" y="133" on="0"/>
        <pt x="187" y="109" on="0"/>
        <pt x="118" y="69" on="0"/>
        <pt x="94" y="45" on="1"/>
        <pt x="59" y="10" on="0"/>
        <pt x="53" y="-13" on="1"/>
        <pt x="47" y="-35" on="0"/>
      </contour>
    </TTGlyph>
    <TTGlyph name="glyph00030" xMin="-5" yMin="-35" xMax="537" yMax="294">
      <contour>
        <pt x="16" y="-35" on="1"/>
        <pt x="12" y="-35" on="0"/>
        <pt x="-5" y="-25" on="0"/>
        <pt x="-5" y="-16" on="1"/>
        <pt x="-5" y="3" on="0"/>
        <pt x="60" y="92" on="1"/>
        <pt x="102" y="150" on="0"/>
        <pt x="205" y="241" on="0"/>
        <pt x="325" y="294" on="0"/>
        <pt x="390" y="294" on="1"/>
        <pt x="416" y="294" on="0"/>
        <pt x="450" y="279" on="0"/>
        <pt x="480" y="264" on="0"/>
        <pt x="497" y="264" on="1"/>
        <pt x="511" y="264" on="0"/>
        <pt x="537" y="231" on="0"/>
        <pt x="537" y="184" on="1"/>
        <pt x="537" y="131" on="0"/>
        <pt x="494" y="74" on="0"/>
        <pt x="463" y="74" on="1"/>
        <pt x="436" y="74" on="0"/>
        <pt x="403" y="92" on="0"/>
        <pt x="374" y="115" on="0"/>
        <pt x="333" y="133" on="0"/>
        <pt x="298" y="133" on="1"/>
        <pt x="264" y="133" on="0"/>
        <pt x="187" y="109" on="0"/>
        <pt x="118" y="69" on="0"/>
        <pt x="94" y="45" on="1"/>
        <pt x="59" y="10" on="0"/>
        <pt x="53" y="-13" on="1"/>
        <pt x="47" y="-35" on="0"/>
      </contour>
    </TTGlyph>
    <TTGlyph name="glyph00031" xMin="-5" yMin="-35" xMax="537" yMax="294">
      <contour>
        <pt x="16" y="-35" on="1"/>
        <pt x="12" y="-35" on="0"/>
        <pt x="-5" y="-25" on="0"/>
        <pt x="-5" y="-16" on="1"/>
        <pt x="-5" y="3" on="0"/>
        <pt x="60" y="92" on="1"/>
        <pt x="102" y="150" on="0"/>
        <pt x="205" y="241" on="0"/>
        <pt x="325" y="294" on="0"/>
        <pt x="390" y="294" on="1"/>
        <pt x="416" y="294" on="0"/>
        <pt x="450" y="279" on="0"/>
        <pt x="480" y="264" on="0"/>
        <pt x="497" y="264" on="1"/>
        <pt x="511" y="264" on="0"/>
        <pt x="537" y="231" on="0"/>
        <pt x="537" y="184" on="1"/>
        <pt x="537" y="131" on="0"/>
        <pt x="494" y="74" on="0"/>
        <pt x="463" y="74" on="1"/>
        <pt x="436" y="74" on="0"/>
        <pt x="403" y="92" on="0"/>
        <pt x="374" y="115" on="0"/>
        <pt x="333" y="133" on="0"/>
        <pt x="298" y="133" on="1"/>
        <pt x="264" y="133" on="0"/>
        <pt x="187" y="109" on="0"/>
        <pt x="118" y="69" on="0"/>
        <pt x="94" y="45" on="1"/>
        <pt x="59" y="10" on="0"/>
        <pt x="53" y="-13" on="1"/>
        <pt x="47" y="-35" on="0"/>
      </contour>
    </TTGlyph>
    <TTGlyph name="glyph00032" xMin="-44" yMin="0" xMax="437" yMax="357">
      <contour>
        <pt x="0" y="0" on="1"/>
        <pt x="-21" y="0" on="0"/>
        <pt x="-44" y="46" on="0"/>
        <pt x="-44" y="101" on="1"/>
        <pt x="-44" y="150" on="0"/>
        <pt x="-17" y="205" on="0"/>
        <pt x="27" y="228" on="0"/>
        <pt x="50" y="228" on="1"/>
        <pt x="107" y="228" on="0"/>
        <pt x="190" y="276" on="0"/>
        <pt x="225" y="324" on="1"/>
        <pt x="240" y="344" on="0"/>
        <pt x="259" y="357" on="0"/>
        <pt x="272" y="357" on="1"/>
        <pt x="292" y="357" on="0"/>
        <pt x="357" y="336" on="0"/>
        <pt x="397" y="336" on="1"/>
        <pt x="415" y="336" on="0"/>
        <pt x="432" y="311" on="0"/>
        <pt x="437" y="274" on="0"/>
        <pt x="437" y="256" on="1"/>
        <pt x="437" y="201" on="0"/>
        <pt x="396" y="146" on="0"/>
        <pt x="363" y="146" on="1"/>
        <pt x="324" y="146" on="0"/>
        <pt x="268" y="166" on="0"/>
        <pt x="232" y="186" on="0"/>
        <pt x="220" y="186" on="1"/>
        <pt x="210" y="186" on="0"/>
        <pt x="199" y="174" on="0"/>
        <pt x="191" y="162" on="1"/>
        <pt x="155" y="101" on="0"/>
        <pt x="97" y="30" on="0"/>
        <pt x="38" y="0" on="0"/>
      </contour>
    </TTGlyph>
    <TTGlyph name="glyph00033" xMin="-40" yMin="0" xMax="230" yMax="892">
      <contour>
        <pt x="0" y="0" on="1"/>
        <pt x="-15" y="0" on="0"/>
        <pt x="-40" y="37" on="0"/>
        <pt x="-40" y="80" on="1"/>
        <pt x="-40" y="122" on="0"/>
        <pt x="-17" y="170" on="0"/>
        <pt x="18" y="190" on="0"/>
        <pt x="34" y="190" on="1"/>
        <pt x="112" y="190" on="0"/>
        <pt x="122" y="286" on="1"/>
        <pt x="127" y="334" on="0"/>
        <pt x="131" y="459" on="0"/>
        <pt x="131" y="535" on="1"/>
        <pt x="131" y="583" on="0"/>
        <pt x="135" y="650" on="0"/>
        <pt x="145" y="710" on="0"/>
        <pt x="153" y="747" on="1"/>
        <pt x="160" y="778" on="0"/>
        <pt x="186" y="846" on="0"/>
        <pt x="205" y="892" on="1"/>
        <pt x="230" y="885" on="1"/>
        <pt x="223" y="848" on="0"/>
        <pt x="212" y="741" on="0"/>
        <pt x="207" y="667" on="1"/>
        <pt x="194" y="438" on="1"/>
        <pt x="185" y="273" on="0"/>
        <pt x="134" y="137" on="1"/>
        <pt x="83" y="0" on="0"/>
      </contour>
    </TTGlyph>
    <TTGlyph name="glyph00034" xMin="-45" yMin="0" xMax="285" yMax="980">
      <contour>
        <pt x="0" y="0" on="1"/>
        <pt x="-19" y="0" on="0"/>
        <pt x="-45" y="46" on="0"/>
        <pt x="-45" y="101" on="1"/>
        <pt x="-45" y="166" on="0"/>
        <pt x="7" y="228" on="0"/>
        <pt x="49" y="228" on="1"/>
        <pt x="94" y="228" on="0"/>
        <pt x="147" y="263" on="0"/>
        <pt x="172" y="317" on="0"/>
        <pt x="174" y="344" on="1"/>
        <pt x="174" y="347" on="0"/>
        <pt x="177" y="408" on="0"/>
        <pt x="181" y="500" on="0"/>
        <pt x="185" y="606" on="0"/>
        <pt x="186" y="654" on="1"/>
        <pt x="188" y="702" on="0"/>
        <pt x="195" y="778" on="0"/>
        <pt x="210" y="849" on="0"/>
        <pt x="238" y="928" on="0"/>
        <pt x="260" y="980" on="1"/>
        <pt x="285" y="973" on="1"/>
        <pt x="281" y="954" on="0"/>
        <pt x="275" y="907" on="0"/>
        <pt x="273" y="876" on="1"/>
        <pt x="245" y="473" on="1"/>
        <pt x="233" y="292" on="0"/>
        <pt x="173" y="146" on="1"/>
        <pt x="113" y="0" on="0"/>
      </contour>
    </TTGlyph>
    <TTGlyph name="glyph00035" xMin="-12" yMin="-50" xMax="445" yMax="906">
      <contour>
        <pt x="3" y="-50" on="1"/>
        <pt x="-12" y="-50" on="0"/>
        <pt x="-12" y="-33" on="1"/>
        <pt x="-12" y="-24" on="0"/>
        <pt x="14" y="24" on="0"/>
        <pt x="63" y="87" on="0"/>
        <pt x="137" y="150" on="0"/>
        <pt x="185" y="174" on="1"/>
        <pt x="228" y="196" on="0"/>
        <pt x="284" y="228" on="0"/>
        <pt x="297" y="238" on="1"/>
        <pt x="323" y="259" on="0"/>
        <pt x="326" y="326" on="1"/>
        <pt x="335" y="548" on="1"/>
        <pt x="337" y="591" on="0"/>
        <pt x="339" y="642" on="0"/>
        <pt x="343" y="669" on="1"/>
        <pt x="348" y="703" on="0"/>
        <pt x="357" y="751" on="0"/>
        <pt x="373" y="797" on="0"/>
        <pt x="399" y="858" on="0"/>
        <pt x="421" y="906" on="1"/>
        <pt x="445" y="897" on="1"/>
        <pt x="439" y="878" on="0"/>
        <pt x="423" y="772" on="0"/>
        <pt x="419" y="710" on="1"/>
        <pt x="403" y="461" on="1"/>
        <pt x="399" y="406" on="0"/>
        <pt x="383" y="306" on="0"/>
        <pt x="367" y="261" on="1"/>
        <pt x="336" y="171" on="0"/>
        <pt x="214" y="113" on="1"/>
        <pt x="153" y="84" on="0"/>
        <pt x="72" y="26" on="0"/>
        <pt x="50" y="-17" on="1"/>
        <pt x="44" y="-28" on="0"/>
        <pt x="19" y="-50" on="0"/>
      </contour>
    </TTGlyph>
    <TTGlyph name="glyph00036" xMin="-45" yMin="0" xMax="280" yMax="871">
      <contour>
        <pt x="0" y="0" on="1"/>
        <pt x="-19" y="0" on="0"/>
        <pt x="-45" y="46" on="0"/>
        <pt x="-45" y="101" on="1"/>
        <pt x="-45" y="166" on="0"/>
        <pt x="7" y="228" on="0"/>
        <pt x="49" y="228" on="1"/>
        <pt x="92" y="228" on="0"/>
        <pt x="150" y="264" on="0"/>
        <pt x="163" y="295" on="1"/>
        <pt x="168" y="308" on="0"/>
        <pt x="175" y="354" on="0"/>
        <pt x="176" y="386" on="1"/>
        <pt x="180" y="516" on="1"/>
        <pt x="182" y="577" on="0"/>
        <pt x="190" y="667" on="0"/>
        <pt x="207" y="744" on="0"/>
        <pt x="234" y="823" on="0"/>
        <pt x="255" y="871" on="1"/>
        <pt x="280" y="864" on="1"/>
        <pt x="272" y="823" on="0"/>
        <pt x="267" y="770" on="1"/>
        <pt x="264" y="736" on="0"/>
        <pt x="260" y="677" on="0"/>
        <pt x="255" y="614" on="0"/>
        <pt x="250" y="532" on="0"/>
        <pt x="245" y="473" on="1"/>
        <pt x="229" y="262" on="0"/>
        <pt x="171" y="130" on="1"/>
        <pt x="115" y="0" on="0"/>
      </contour>
    </TTGlyph>
    <TTGlyph name="glyph00037" xMin="-45" yMin="0" xMax="429" yMax="970">
      <contour>
        <pt x="0" y="0" on="1"/>
        <pt x="-19" y="0" on="0"/>
        <pt x="-45" y="46" on="0"/>
        <pt x="-45" y="101" on="1"/>
        <pt x="-45" y="157" on="0"/>
        <pt x="2" y="228" on="0"/>
        <pt x="49" y="228" on="1"/>
        <pt x="104" y="228" on="0"/>
        <pt x="166" y="290" on="0"/>
        <pt x="173" y="336" on="1"/>
        <pt x="181" y="385" on="0"/>
        <pt x="181" y="485" on="0"/>
        <pt x="184" y="534" on="1"/>
        <pt x="187" y="590" on="0"/>
        <pt x="196" y="701" on="0"/>
        <pt x="203" y="772" on="1"/>
        <pt x="208" y="823" on="0"/>
        <pt x="233" y="917" on="0"/>
        <pt x="254" y="970" on="1"/>
        <pt x="280" y="964" on="1"/>
        <pt x="264" y="879" on="0"/>
        <pt x="254" y="660" on="0"/>
        <pt x="254" y="538" on="1"/>
        <pt x="254" y="478" on="0"/>
        <pt x="275" y="385" on="0"/>
        <pt x="332" y="333" on="0"/>
        <pt x="385" y="333" on="1"/>
        <pt x="411" y="333" on="0"/>
        <pt x="429" y="289" on="0"/>
        <pt x="429" y="246" on="1"/>
        <pt x="429" y="173" on="0"/>
        <pt x="372" y="105" on="0"/>
        <pt x="336" y="105" on="1"/>
        <pt x="279" y="105" on="0"/>
        <pt x="212" y="166" on="0"/>
        <pt x="197" y="225" on="1"/>
        <pt x="176" y="138" on="0"/>
        <pt x="113" y="40" on="0"/>
        <pt x="39" y="0" on="0"/>
      </contour>
    </TTGlyph>
    <TTGlyph name="glyph00038" xMin="-40" yMin="0" xMax="406" yMax="988">
      <contour>
        <pt x="0" y="0" on="1"/>
        <pt x="-40" y="0" on="0"/>
        <pt x="-40" y="79" on="1"/>
        <pt x="-40" y="123" on="0"/>
        <pt x="-6" y="190" on="0"/>
        <pt x="34" y="190" on="1"/>
        <pt x="82" y="190" on="0"/>
        <pt x="147" y="273" on="0"/>
        <pt x="151" y="333" on="1"/>
        <pt x="153" y="367" on="0"/>
        <pt x="157" y="418" on="0"/>
        <pt x="160" y="474" on="0"/>
        <pt x="165" y="556" on="0"/>
        <pt x="169" y="620" on="1"/>
        <pt x="183" y="852" on="0"/>
        <pt x="236" y="988" on="1"/>
        <pt x="262" y="982" on="1"/>
        <pt x="254" y="937" on="0"/>
        <pt x="242" y="817" on="0"/>
        <pt x="235" y="685" on="0"/>
        <pt x="231" y="558" on="0"/>
        <pt x="231" y="506" on="1"/>
        <pt x="231" y="446" on="0"/>
        <pt x="252" y="353" on="0"/>
        <pt x="309" y="301" on="0"/>
        <pt x="362" y="301" on="1"/>
        <pt x="388" y="301" on="0"/>
        <pt x="406" y="257" on="0"/>
        <pt x="406" y="214" on="1"/>
        <pt x="406" y="141" on="0"/>
        <pt x="349" y="73" on="0"/>
        <pt x="313" y="73" on="1"/>
        <pt x="256" y="73" on="0"/>
        <pt x="187" y="135" on="0"/>
        <pt x="171" y="205" on="1"/>
        <pt x="158" y="150" on="0"/>
        <pt x="111" y="56" on="0"/>
        <pt x="43" y="0" on="0"/>
      </contour>
    </TTGlyph>
    <TTGlyph name="glyph00039" xMin="-13" yMin="-50" xMax="633" yMax="970">
      <contour>
        <pt x="2" y="-50" on="1"/>
        <pt x="-13" y="-50" on="0"/>
        <pt x="-13" y="-33" on="1"/>
        <pt x="-13" y="-19" on="0"/>
        <pt x="23" y="40" on="0"/>
        <pt x="53" y="77" on="1"/>
        <pt x="85" y="116" on="0"/>
        <pt x="211" y="202" on="0"/>
        <pt x="292" y="234" on="1"/>
        <pt x="375" y="267" on="0"/>
        <pt x="382" y="300" on="1"/>
        <pt x="382" y="329" on="0"/>
        <pt x="384" y="386" on="0"/>
        <pt x="385" y="413" on="1"/>
        <pt x="388" y="487" on="0"/>
        <pt x="398" y="636" on="0"/>
        <pt x="405" y="710" on="1"/>
        <pt x="410" y="760" on="0"/>
        <pt x="422" y="841" on="0"/>
        <pt x="444" y="922" on="0"/>
        <pt x="462" y="970" on="1"/>
        <pt x="488" y="964" on="1"/>
        <pt x="476" y="898" on="0"/>
        <pt x="458" y="653" on="0"/>
        <pt x="458" y="488" on="1"/>
        <pt x="458" y="428" on="0"/>
        <pt x="479" y="335" on="0"/>
        <pt x="536" y="283" on="0"/>
        <pt x="589" y="283" on="1"/>
        <pt x="615" y="283" on="0"/>
        <pt x="633" y="239" on="0"/>
        <pt x="633" y="196" on="1"/>
        <pt x="633" y="123" on="0"/>
        <pt x="576" y="55" on="0"/>
        <pt x="540" y="55" on="1"/>
        <pt x="470" y="55" on="0"/>
        <pt x="399" y="144" on="0"/>
        <pt x="388" y="220" on="1"/>
        <pt x="354" y="177" on="0"/>
        <pt x="274" y="143" on="1"/>
        <pt x="233" y="125" on="0"/>
        <pt x="164" y="90" on="0"/>
        <pt x="136" y="73" on="1"/>
        <pt x="80" y="39" on="0"/>
        <pt x="57" y="-5" on="1"/>
        <pt x="35" y="-50" on="0"/>
      </contour>
    </TTGlyph>
    <TTGlyph name="glyph00040" xMin="-45" yMin="0" xMax="429" yMax="872">
      <contour>
        <pt x="0" y="0" on="1"/>
        <pt x="-19" y="0" on="0"/>
        <pt x="-45" y="46" on="0"/>
        <pt x="-45" y="101" on="1"/>
        <pt x="-45" y="157" on="0"/>
        <pt x="2" y="228" on="0"/>
        <pt x="49" y="228" on="1"/>
        <pt x="104" y="228" on="0"/>
        <pt x="169" y="290" on="0"/>
        <pt x="174" y="339" on="1"/>
        <pt x="180" y="398" on="0"/>
        <pt x="189" y="513" on="0"/>
        <pt x="193" y="571" on="1"/>
        <pt x="199" y="651" on="0"/>
        <pt x="223" y="799" on="0"/>
        <pt x="251" y="872" on="1"/>
        <pt x="277" y="867" on="1"/>
        <pt x="271" y="833" on="0"/>
        <pt x="262" y="742" on="0"/>
        <pt x="257" y="645" on="0"/>
        <pt x="254" y="557" on="0"/>
        <pt x="254" y="525" on="1"/>
        <pt x="254" y="473" on="0"/>
        <pt x="276" y="386" on="0"/>
        <pt x="333" y="333" on="0"/>
        <pt x="385" y="333" on="1"/>
        <pt x="411" y="333" on="0"/>
        <pt x="429" y="289" on="0"/>
        <pt x="429" y="246" on="1"/>
        <pt x="429" y="173" on="0"/>
        <pt x="372" y="105" on="0"/>
        <pt x="336" y="105" on="1"/>
        <pt x="279" y="105" on="0"/>
        <pt x="212" y="166" on="0"/>
        <pt x="197" y="225" on="1"/>
        <pt x="176" y="138" on="0"/>
        <pt x="113" y="40" on="0"/>
        <pt x="39" y="0" on="0"/>
      </contour>
    </TTGlyph>
    <TTGlyph name="glyph00041" xMin="-40" yMin="0" xMax="488" yMax="560">
      <contour>
        <pt x="0" y="0" on="1"/>
        <pt x="-40" y="0" on="0"/>
        <pt x="-40" y="80" on="1"/>
        <pt x="-40" y="136" on="0"/>
        <pt x="4" y="190" on="0"/>
        <pt x="34" y="190" on="1"/>
        <pt x="120" y="190" on="0"/>
        <pt x="235" y="240" on="0"/>
        <pt x="277" y="279" on="1"/>
        <pt x="335" y="333" on="1"/>
        <pt x="274" y="356" on="0"/>
        <pt x="189" y="389" on="0"/>
        <pt x="164" y="399" on="1"/>
        <pt x="115" y="419" on="0"/>
        <pt x="84" y="419" on="1"/>
        <pt x="66" y="419" on="0"/>
        <pt x="33" y="404" on="0"/>
        <pt x="17" y="384" on="1"/>
        <pt x="-13" y="400" on="1"/>
        <pt x="32" y="478" on="0"/>
        <pt x="129" y="560" on="0"/>
        <pt x="182" y="560" on="1"/>
        <pt x="208" y="560" on="0"/>
        <pt x="259" y="547" on="0"/>
        <pt x="326" y="520" on="0"/>
        <pt x="373" y="498" on="1"/>
        <pt x="468" y="455" on="1"/>
        <pt x="475" y="452" on="0"/>
        <pt x="484" y="448" on="0"/>
        <pt x="488" y="447" on="1"/>
        <pt x="488" y="420" on="1"/>
        <pt x="481" y="413" on="0"/>
        <pt x="461" y="393" on="0"/>
        <pt x="450" y="380" on="1"/>
        <pt x="291" y="202" on="1"/>
        <pt x="237" y="141" on="0"/>
        <pt x="156" y="57" on="0"/>
        <pt x="125" y="38" on="1"/>
        <pt x="61" y="0" on="0"/>
      </contour>
    </TTGlyph>
    <TTGlyph name="glyph00042" xMin="-10" yMin="-51" xMax="651" yMax="408">
      <contour>
        <pt x="2" y="-51" on="1"/>
        <pt x="-2" y="-51" on="0"/>
        <pt x="-10" y="-41" on="0"/>
        <pt x="-10" y="-31" on="1"/>
        <pt x="-10" y="-23" on="0"/>
        <pt x="-6" y="-8" on="0"/>
        <pt x="0" y="0" on="1"/>
        <pt x="29" y="40" on="0"/>
        <pt x="144" y="104" on="0"/>
        <pt x="226" y="132" on="1"/>
        <pt x="263" y="145" on="0"/>
        <pt x="347" y="174" on="0"/>
        <pt x="425" y="200" on="0"/>
        <pt x="481" y="219" on="0"/>
        <pt x="489" y="221" on="1"/>
        <pt x="443" y="237" on="0"/>
        <pt x="363" y="253" on="0"/>
        <pt x="317" y="253" on="1"/>
        <pt x="282" y="253" on="0"/>
        <pt x="237" y="246" on="0"/>
        <pt x="204" y="227" on="0"/>
        <pt x="186" y="208" on="1"/>
        <pt x="155" y="222" on="1"/>
        <pt x="187" y="291" on="0"/>
        <pt x="255" y="372" on="0"/>
        <pt x="336" y="408" on="0"/>
        <pt x="388" y="408" on="1"/>
        <pt x="402" y="408" on="0"/>
        <pt x="464" y="402" on="0"/>
        <pt x="541" y="388" on="0"/>
        <pt x="619" y="363" on="0"/>
        <pt x="650" y="344" on="1"/>
        <pt x="651" y="335" on="1"/>
        <pt x="622" y="271" on="0"/>
        <pt x="547" y="195" on="0"/>
        <pt x="521" y="182" on="1"/>
        <pt x="509" y="176" on="0"/>
        <pt x="456" y="155" on="0"/>
        <pt x="390" y="131" on="0"/>
        <pt x="328" y="109" on="0"/>
        <pt x="307" y="102" on="1"/>
        <pt x="217" y="72" on="0"/>
        <pt x="116" y="35" on="0"/>
        <pt x="69" y="8" on="0"/>
        <pt x="58" y="-8" on="1"/>
        <pt x="48" y="-23" on="1"/>
        <pt x="29" y="-51" on="0"/>
      </contour>
    </TTGlyph>
    <TTGlyph name="glyph00043" xMin="-40" yMin="0" xMax="473" yMax="510">
      <contour>
        <pt x="0" y="0" on="1"/>
        <pt x="-40" y="0" on="0"/>
        <pt x="-40" y="80" on="1"/>
        <pt x="-40" y="136" on="0"/>
        <pt x="4" y="190" on="0"/>
        <pt x="34" y="190" on="1"/>
        <pt x="123" y="190" on="0"/>
        <pt x="269" y="246" on="0"/>
        <pt x="339" y="303" on="1"/>
        <pt x="335" y="303" on="0"/>
        <pt x="298" y="304" on="0"/>
        <pt x="242" y="308" on="1"/>
        <pt x="193" y="312" on="0"/>
        <pt x="103" y="321" on="0"/>
        <pt x="42" y="333" on="0"/>
        <pt x="34" y="338" on="1"/>
        <pt x="28" y="352" on="1"/>
        <pt x="59" y="441" on="0"/>
        <pt x="97" y="510" on="0"/>
        <pt x="114" y="510" on="1"/>
        <pt x="120" y="510" on="0"/>
        <pt x="136" y="503" on="0"/>
        <pt x="136" y="495" on="1"/>
        <pt x="136" y="491" on="1"/>
        <pt x="165" y="484" on="0"/>
        <pt x="240" y="474" on="0"/>
        <pt x="284" y="469" on="1"/>
        <pt x="327" y="464" on="0"/>
        <pt x="381" y="457" on="0"/>
        <pt x="419" y="452" on="0"/>
        <pt x="451" y="448" on="0"/>
        <pt x="472" y="445" on="1"/>
        <pt x="473" y="425" on="1"/>
        <pt x="346" y="241" on="1"/>
        <pt x="256" y="111" on="0"/>
        <pt x="91" y="0" on="0"/>
      </contour>
    </TTGlyph>
    <TTGlyph name="glyph00044" xMin="-45" yMin="0" xMax="512" yMax="531">
      <contour>
        <pt x="0" y="0" on="1"/>
        <pt x="-19" y="0" on="0"/>
        <pt x="-45" y="47" on="0"/>
        <pt x="-45" y="101" on="1"/>
        <pt x="-45" y="169" on="0"/>
        <pt x="-17" y="198" on="1"/>
        <pt x="12" y="228" on="0"/>
        <pt x="49" y="228" on="1"/>
        <pt x="138" y="228" on="0"/>
        <pt x="266" y="260" on="0"/>
        <pt x="352" y="309" on="0"/>
        <pt x="378" y="335" on="1"/>
        <pt x="371" y="335" on="0"/>
        <pt x="309" y="336" on="0"/>
        <pt x="224" y="339" on="0"/>
        <pt x="139" y="345" on="0"/>
        <pt x="75" y="353" on="0"/>
        <pt x="67" y="359" on="1"/>
        <pt x="61" y="373" on="1"/>
        <pt x="79" y="440" on="0"/>
        <pt x="112" y="507" on="0"/>
        <pt x="138" y="531" on="0"/>
        <pt x="145" y="531" on="1"/>
        <pt x="151" y="531" on="0"/>
        <pt x="167" y="524" on="0"/>
        <pt x="167" y="516" on="1"/>
        <pt x="167" y="512" on="1"/>
        <pt x="205" y="507" on="0"/>
        <pt x="297" y="498" on="0"/>
        <pt x="377" y="492" on="0"/>
        <pt x="396" y="490" on="1"/>
        <pt x="511" y="482" on="1"/>
        <pt x="512" y="462" on="1"/>
        <pt x="441" y="341" on="0"/>
        <pt x="305" y="155" on="0"/>
        <pt x="238" y="99" on="1"/>
        <pt x="181" y="51" on="0"/>
        <pt x="64" y="0" on="0"/>
      </contour>
    </TTGlyph>
    <TTGlyph name="glyph00045" xMin="-40" yMin="0" xMax="461" yMax="535">
      <contour>
        <pt x="0" y="0" on="1"/>
        <pt x="-22" y="0" on="0"/>
        <pt x="-40" y="50" on="0"/>
        <pt x="-40" y="78" on="1"/>
        <pt x="-40" y="118" on="0"/>
        <pt x="4" y="182" on="0"/>
        <pt x="72" y="220" on="0"/>
        <pt x="107" y="220" on="1"/>
        <pt x="198" y="220" on="0"/>
        <pt x="206" y="330" on="1"/>
        <pt x="213" y="439" on="0"/>
        <pt x="270" y="535" on="1"/>
        <pt x="295" y="530" on="1"/>
        <pt x="292" y="516" on="0"/>
        <pt x="290" y="494" on="0"/>
        <pt x="290" y="480" on="1"/>
        <pt x="290" y="432" on="0"/>
        <pt x="354" y="380" on="0"/>
        <pt x="417" y="380" on="1"/>
        <pt x="461" y="380" on="0"/>
        <pt x="461" y="276" on="1"/>
        <pt x="461" y="229" on="0"/>
        <pt x="430" y="174" on="0"/>
        <pt x="387" y="152" on="0"/>
        <pt x="367" y="152" on="1"/>
        <pt x="305" y="152" on="0"/>
        <pt x="238" y="194" on="0"/>
        <pt x="223" y="219" on="1"/>
        <pt x="207" y="169" on="0"/>
        <pt x="166" y="88" on="0"/>
        <pt x="140" y="59" on="1"/>
        <pt x="87" y="0" on="0"/>
      </contour>
    </TTGlyph>
    <TTGlyph name="glyph00046" xMin="-40" yMin="0" xMax="398" yMax="340">
      <contour>
        <pt x="0" y="0" on="1"/>
        <pt x="-22" y="0" on="0"/>
        <pt x="-40" y="50" on="0"/>
        <pt x="-40" y="78" on="1"/>
        <pt x="-40" y="118" on="0"/>
        <pt x="4" y="182" on="0"/>
        <pt x="72" y="220" on="0"/>
        <pt x="107" y="220" on="1"/>
        <pt x="136" y="220" on="0"/>
        <pt x="189" y="240" on="0"/>
        <pt x="211" y="272" on="1"/>
        <pt x="234" y="305" on="1"/>
        <pt x="248" y="325" on="0"/>
        <pt x="269" y="340" on="0"/>
        <pt x="283" y="340" on="1"/>
        <pt x="296" y="340" on="0"/>
        <pt x="314" y="333" on="1"/>
        <pt x="331" y="326" on="0"/>
        <pt x="358" y="326" on="1"/>
        <pt x="398" y="326" on="0"/>
        <pt x="398" y="246" on="1"/>
        <pt x="398" y="191" on="0"/>
        <pt x="355" y="136" on="0"/>
        <pt x="324" y="136" on="1"/>
        <pt x="306" y="136" on="0"/>
        <pt x="274" y="146" on="0"/>
        <pt x="259" y="155" on="1"/>
        <pt x="229" y="173" on="0"/>
        <pt x="217" y="173" on="1"/>
        <pt x="205" y="173" on="0"/>
        <pt x="149" y="87" on="1"/>
        <pt x="94" y="0" on="0"/>
      </contour>
    </TTGlyph>
    <TTGlyph name="glyph00047" xMin="-40" yMin="0" xMax="544" yMax="535">
      <contour>
        <pt x="0" y="0" on="1"/>
        <pt x="-16" y="0" on="0"/>
        <pt x="-40" y="39" on="0"/>
        <pt x="-40" y="78" on="1"/>
        <pt x="-40" y="118" on="0"/>
        <pt x="3" y="182" on="0"/>
        <pt x="71" y="220" on="0"/>
        <pt x="107" y="220" on="1"/>
        <pt x="233" y="220" on="0"/>
        <pt x="296" y="253" on="1"/>
        <pt x="359" y="287" on="0"/>
        <pt x="380" y="308" on="1"/>
        <pt x="348" y="311" on="0"/>
        <pt x="266" y="323" on="0"/>
        <pt x="185" y="338" on="0"/>
        <pt x="123" y="355" on="0"/>
        <pt x="110" y="363" on="1"/>
        <pt x="104" y="377" on="1"/>
        <pt x="135" y="463" on="0"/>
        <pt x="174" y="535" on="0"/>
        <pt x="191" y="535" on="1"/>
        <pt x="197" y="535" on="0"/>
        <pt x="213" y="528" on="0"/>
        <pt x="213" y="520" on="1"/>
        <pt x="213" y="514" on="1"/>
        <pt x="230" y="507" on="0"/>
        <pt x="301" y="491" on="0"/>
        <pt x="356" y="483" on="1"/>
        <pt x="462" y="467" on="0"/>
        <pt x="486" y="462" on="1"/>
        <pt x="522" y="456" on="1"/>
        <pt x="528" y="455" on="0"/>
        <pt x="539" y="453" on="0"/>
        <pt x="544" y="451" on="1"/>
        <pt x="543" y="431" on="1"/>
        <pt x="428" y="298" on="1"/>
        <pt x="381" y="237" on="0"/>
        <pt x="282" y="133" on="0"/>
        <pt x="231" y="89" on="1"/>
        <pt x="127" y="0" on="0"/>
      </contour>
    </TTGlyph>
    <TTGlyph name="glyph00048" xMin="-45" yMin="0" xMax="512" yMax="531">
      <contour>
        <pt x="0" y="0" on="1"/>
        <pt x="-19" y="0" on="0"/>
        <pt x="-45" y="47" on="0"/>
        <pt x="-45" y="101" on="1"/>
        <pt x="-45" y="169" on="0"/>
        <pt x="-17" y="198" on="1"/>
        <pt x="12" y="228" on="0"/>
        <pt x="49" y="228" on="1"/>
        <pt x="138" y="228" on="0"/>
        <pt x="266" y="260" on="0"/>
        <pt x="352" y="309" on="0"/>
        <pt x="378" y="335" on="1"/>
        <pt x="371" y="335" on="0"/>
        <pt x="309" y="336" on="0"/>
        <pt x="224" y="339" on="0"/>
        <pt x="139" y="345" on="0"/>
        <pt x="75" y="353" on="0"/>
        <pt x="67" y="359" on="1"/>
        <pt x="61" y="373" on="1"/>
        <pt x="79" y="440" on="0"/>
        <pt x="112" y="507" on="0"/>
        <pt x="138" y="531" on="0"/>
        <pt x="145" y="531" on="1"/>
        <pt x="151" y="531" on="0"/>
        <pt x="167" y="524" on="0"/>
        <pt x="167" y="516" on="1"/>
        <pt x="167" y="512" on="1"/>
        <pt x="205" y="507" on="0"/>
        <pt x="297" y="498" on="0"/>
        <pt x="377" y="492" on="0"/>
        <pt x="396" y="490" on="1"/>
        <pt x="511" y="482" on="1"/>
        <pt x="512" y="462" on="1"/>
        <pt x="441" y="341" on="0"/>
        <pt x="305" y="155" on="0"/>
        <pt x="238" y="99" on="1"/>
        <pt x="181" y="51" on="0"/>
        <pt x="64" y="0" on="0"/>
      </contour>
    </TTGlyph>
    <TTGlyph name="glyph00049" xMin="-10" yMin="-46" xMax="656" yMax="423">
      <contour>
        <pt x="2" y="-46" on="1"/>
        <pt x="-2" y="-46" on="0"/>
        <pt x="-10" y="-40" on="0"/>
        <pt x="-10" y="-31" on="1"/>
        <pt x="-10" y="-23" on="0"/>
        <pt x="-6" y="-8" on="0"/>
        <pt x="0" y="0" on="1"/>
        <pt x="29" y="40" on="0"/>
        <pt x="144" y="104" on="0"/>
        <pt x="226" y="132" on="1"/>
        <pt x="263" y="145" on="0"/>
        <pt x="347" y="174" on="0"/>
        <pt x="425" y="200" on="0"/>
        <pt x="481" y="219" on="0"/>
        <pt x="489" y="221" on="1"/>
        <pt x="449" y="230" on="0"/>
        <pt x="356" y="240" on="0"/>
        <pt x="267" y="246" on="0"/>
        <pt x="201" y="247" on="0"/>
        <pt x="187" y="247" on="1"/>
        <pt x="178" y="261" on="1"/>
        <pt x="184" y="279" on="0"/>
        <pt x="208" y="332" on="0"/>
        <pt x="236" y="376" on="1"/>
        <pt x="250" y="399" on="0"/>
        <pt x="271" y="423" on="0"/>
        <pt x="281" y="423" on="1"/>
        <pt x="287" y="423" on="0"/>
        <pt x="303" y="416" on="0"/>
        <pt x="303" y="408" on="1"/>
        <pt x="303" y="403" on="1"/>
        <pt x="318" y="403" on="1"/>
        <pt x="362" y="403" on="0"/>
        <pt x="460" y="396" on="0"/>
        <pt x="554" y="382" on="0"/>
        <pt x="631" y="362" on="0"/>
        <pt x="654" y="349" on="1"/>
        <pt x="656" y="334" on="1"/>
        <pt x="652" y="326" on="1"/>
        <pt x="623" y="269" on="0"/>
        <pt x="556" y="203" on="0"/>
        <pt x="494" y="170" on="0"/>
        <pt x="472" y="161" on="1"/>
        <pt x="454" y="154" on="0"/>
        <pt x="396" y="133" on="0"/>
        <pt x="334" y="111" on="0"/>
        <pt x="307" y="102" on="1"/>
        <pt x="217" y="72" on="0"/>
        <pt x="116" y="35" on="0"/>
        <pt x="69" y="8" on="0"/>
        <pt x="58" y="-8" on="1"/>
        <pt x="48" y="-23" on="1"/>
        <pt x="39" y="-37" on="0"/>
        <pt x="18" y="-46" on="0"/>
      </contour>
    </TTGlyph>
    <TTGlyph name="glyph00050" xMin="-45" yMin="0" xMax="463" yMax="488">
      <contour>
        <pt x="0" y="0" on="1"/>
        <pt x="-19" y="0" on="0"/>
        <pt x="-45" y="46" on="0"/>
        <pt x="-45" y="101" on="1"/>
        <pt x="-45" y="166" on="0"/>
        <pt x="7" y="228" on="0"/>
        <pt x="49" y="228" on="1"/>
        <pt x="93" y="228" on="0"/>
        <pt x="161" y="263" on="0"/>
        <pt x="186" y="289" on="1"/>
        <pt x="214" y="318" on="0"/>
        <pt x="214" y="330" on="1"/>
        <pt x="214" y="338" on="0"/>
        <pt x="228" y="390" on="0"/>
        <pt x="254" y="458" on="0"/>
        <pt x="272" y="488" on="1"/>
        <pt x="297" y="483" on="1"/>
        <pt x="294" y="469" on="0"/>
        <pt x="292" y="447" on="0"/>
        <pt x="292" y="433" on="1"/>
        <pt x="292" y="385" on="0"/>
        <pt x="356" y="333" on="0"/>
        <pt x="419" y="333" on="1"/>
        <pt x="463" y="333" on="0"/>
        <pt x="463" y="229" on="1"/>
        <pt x="463" y="182" on="0"/>
        <pt x="432" y="127" on="0"/>
        <pt x="389" y="105" on="0"/>
        <pt x="369" y="105" on="1"/>
        <pt x="302" y="105" on="0"/>
        <pt x="226" y="161" on="0"/>
        <pt x="212" y="213" on="1"/>
        <pt x="205" y="200" on="0"/>
        <pt x="190" y="176" on="0"/>
        <pt x="183" y="163" on="1"/>
        <pt x="140" y="81" on="0"/>
        <pt x="53" y="0" on="0"/>
      </contour>
    </TTGlyph>
    <TTGlyph name="glyph00055" xMin="48" yMin="-27" xMax="1179" yMax="485">
      <contour>
        <pt x="394" y="-27" on="1"/>
        <pt x="323" y="-27" on="0"/>
        <pt x="197" y="-6" on="0"/>
        <pt x="102" y="46" on="0"/>
        <pt x="48" y="135" on="0"/>
        <pt x="48" y="203" on="1"/>
        <pt x="48" y="286" on="0"/>
        <pt x="80" y="388" on="1"/>
        <pt x="115" y="383" on="1"/>
        <pt x="114" y="374" on="0"/>
        <pt x="111" y="355" on="0"/>
        <pt x="111" y="335" on="1"/>
        <pt x="111" y="249" on="0"/>
        <pt x="194" y="222" on="1"/>
        <pt x="277" y="195" on="0"/>
        <pt x="431" y="195" on="1"/>
        <pt x="515" y="195" on="0"/>
        <pt x="681" y="216" on="0"/>
        <pt x="831" y="252" on="0"/>
        <pt x="956" y="296" on="0"/>
        <pt x="999" y="320" on="1"/>
        <pt x="1094" y="371" on="0"/>
        <pt x="1146" y="485" on="1"/>
        <pt x="1179" y="479" on="1"/>
        <pt x="1130" y="274" on="0"/>
        <pt x="1039" y="179" on="1"/>
        <pt x="949" y="84" on="0"/>
        <pt x="765" y="29" on="1"/>
        <pt x="579" y="-27" on="0"/>
      </contour>
    </TTGlyph>
    <TTGlyph name="glyph00056" xMin="-73" yMin="-73" xMax="73" yMax="73">
      <contour>
        <pt x="-62" y="-73" on="1"/>
        <pt x="-72" y="-63" on="1"/>
        <pt x="-11" y="0" on="1"/>
        <pt x="-73" y="62" on="1"/>
        <pt x="-63" y="73" on="1"/>
        <pt x="0" y="11" on="1"/>
        <pt x="62" y="73" on="1"/>
        <pt x="73" y="62" on="1"/>
        <pt x="11" y="0" on="1"/>
        <pt x="73" y="-63" on="1"/>
        <pt x="62" y="-73" on="1"/>
        <pt x="0" y="-11" on="1"/>
      </contour>
    </TTGlyph>
    <TTGlyph name="uni0627" xMin="91" yMin="101" xMax="236" yMax="958">
      <contour>
        <pt x="117" y="101" on="1"/>
        <pt x="91" y="107" on="1"/>
        <pt x="95" y="126" on="0"/>
        <pt x="109" y="233" on="0"/>
        <pt x="113" y="334" on="1"/>
        <pt x="126" y="621" on="1"/>
        <pt x="129" y="677" on="0"/>
        <pt x="138" y="759" on="0"/>
        <pt x="156" y="831" on="0"/>
        <pt x="187" y="908" on="0"/>
        <pt x="211" y="958" on="1"/>
        <pt x="236" y="950" on="1"/>
        <pt x="229" y="927" on="0"/>
        <pt x="213" y="826" on="0"/>
        <pt x="208" y="730" on="1"/>
        <pt x="192" y="433" on="1"/>
        <pt x="188" y="347" on="0"/>
        <pt x="149" y="175" on="0"/>
      </contour>
    </TTGlyph>
    <TTGlyph name="uni0628" xMin="48" yMin="-353" xMax="1179" yMax="485">
      <contour>
        <pt x="394" y="-27" on="1"/>
        <pt x="323" y="-27" on="0"/>
        <pt x="197" y="-6" on="0"/>
        <pt x="102" y="46" on="0"/>
        <pt x="48" y="135" on="0"/>
        <pt x="48" y="203" on="1"/>
        <pt x="48" y="286" on="0"/>
        <pt x="80" y="388" on="1"/>
        <pt x="115" y="383" on="1"/>
        <pt x="114" y="374" on="0"/>
        <pt x="111" y="355" on="0"/>
        <pt x="111" y="335" on="1"/>
        <pt x="111" y="249" on="0"/>
        <pt x="194" y="222" on="1"/>
        <pt x="277" y="195" on="0"/>
        <pt x="431" y="195" on="1"/>
        <pt x="515" y="195" on="0"/>
        <pt x="681" y="216" on="0"/>
        <pt x="831" y="252" on="0"/>
        <pt x="956" y="296" on="0"/>
        <pt x="999" y="320" on="1"/>
        <pt x="1094" y="371" on="0"/>
        <pt x="1146" y="485" on="1"/>
        <pt x="1179" y="479" on="1"/>
        <pt x="1130" y="274" on="0"/>
        <pt x="1039" y="179" on="1"/>
        <pt x="949" y="84" on="0"/>
        <pt x="765" y="29" on="1"/>
        <pt x="579" y="-27" on="0"/>
      </contour>
      <contour>
        <pt x="562" y="-353" on="1"/>
        <pt x="534" y="-327" on="0"/>
        <pt x="505" y="-300" on="0"/>
        <pt x="485" y="-282" on="0"/>
        <pt x="470" y="-272" on="1"/>
        <pt x="470" y="-262" on="1"/>
        <pt x="477" y="-251" on="0"/>
        <pt x="503" y="-219" on="0"/>
        <pt x="534" y="-186" on="0"/>
        <pt x="560" y="-160" on="0"/>
        <pt x="566" y="-156" on="1"/>
        <pt x="576" y="-156" on="1"/>
        <pt x="617" y="-182" on="0"/>
        <pt x="662" y="-224" on="0"/>
        <pt x="662" y="-248" on="1"/>
        <pt x="662" y="-273" on="0"/>
        <pt x="605" y="-329" on="0"/>
        <pt x="570" y="-353" on="1"/>
      </contour>
    </TTGlyph>
    <TTGlyph name="uni062D" xMin="18" yMin="-373" xMax="889" yMax="760">
      <contour>
        <pt x="355" y="-373" on="1"/>
        <pt x="250" y="-373" on="0"/>
        <pt x="99" y="-287" on="0"/>
        <pt x="18" y="-134" on="0"/>
        <pt x="18" y="-35" on="1"/>
        <pt x="18" y="51" on="0"/>
        <pt x="64" y="209" on="0"/>
        <pt x="108" y="281" on="1"/>
        <pt x="196" y="424" on="0"/>
        <pt x="430" y="584" on="1"/>
        <pt x="426" y="586" on="0"/>
        <pt x="412" y="588" on="0"/>
        <pt x="403" y="589" on="1"/>
        <pt x="355" y="593" on="0"/>
        <pt x="299" y="597" on="0"/>
        <pt x="276" y="597" on="1"/>
        <pt x="224" y="597" on="0"/>
        <pt x="173" y="577" on="0"/>
        <pt x="156" y="542" on="1"/>
        <pt x="123" y="552" on="1"/>
        <pt x="156" y="655" on="0"/>
        <pt x="209" y="708" on="1"/>
        <pt x="261" y="760" on="0"/>
        <pt x="379" y="760" on="1"/>
        <pt x="419" y="760" on="0"/>
        <pt x="514" y="747" on="0"/>
        <pt x="605" y="729" on="0"/>
        <pt x="637" y="719" on="1"/>
        <pt x="639" y="705" on="1"/>
        <pt x="593" y="618" on="0"/>
        <pt x="503" y="563" on="1"/>
        <pt x="457" y="535" on="0"/>
        <pt x="370" y="473" on="0"/>
        <pt x="329" y="439" on="1"/>
        <pt x="248" y="373" on="0"/>
        <pt x="194" y="285" on="1"/>
        <pt x="141" y="197" on="0"/>
        <pt x="141" y="100" on="1"/>
        <pt x="141" y="37" on="0"/>
        <pt x="190" y="-53" on="0"/>
        <pt x="273" y="-111" on="0"/>
        <pt x="377" y="-139" on="0"/>
        <pt x="433" y="-139" on="1"/>
        <pt x="582" y="-139" on="0"/>
        <pt x="793" y="5" on="0"/>
        <pt x="856" y="135" on="1"/>
        <pt x="889" y="124" on="1"/>
        <pt x="792" y="-124" on="0"/>
        <pt x="519" y="-373" on="0"/>
      </contour>
    </TTGlyph>
    <TTGlyph name="uni0644" xMin="18" yMin="-371" xMax="847" yMax="1126">
      <contour>
        <pt x="287" y="-371" on="1"/>
        <pt x="207" y="-371" on="0"/>
        <pt x="103" y="-322" on="0"/>
        <pt x="43" y="-242" on="0"/>
        <pt x="18" y="-143" on="0"/>
        <pt x="18" y="-94" on="1"/>
        <pt x="18" y="-41" on="0"/>
        <pt x="34" y="65" on="0"/>
        <pt x="48" y="117" on="1"/>
        <pt x="62" y="169" on="0"/>
        <pt x="104" y="271" on="0"/>
        <pt x="131" y="322" on="1"/>
        <pt x="164" y="310" on="1"/>
        <pt x="139" y="253" on="0"/>
        <pt x="106" y="132" on="0"/>
        <pt x="106" y="67" on="1"/>
        <pt x="106" y="-12" on="0"/>
        <pt x="169" y="-101" on="0"/>
        <pt x="275" y="-136" on="0"/>
        <pt x="337" y="-136" on="1"/>
        <pt x="428" y="-136" on="0"/>
        <pt x="559" y="-84" on="0"/>
        <pt x="643" y="-6" on="0"/>
        <pt x="665" y="32" on="1"/>
        <pt x="708" y="107" on="0"/>
        <pt x="716" y="295" on="1"/>
        <pt x="737" y="775" on="1"/>
        <pt x="737" y="779" on="0"/>
        <pt x="738" y="792" on="0"/>
        <pt x="742" y="832" on="0"/>
        <pt x="745" y="874" on="1"/>
        <pt x="748" y="909" on="0"/>
        <pt x="779" y="1025" on="0"/>
        <pt x="820" y="1126" on="1"/>
        <pt x="847" y="1120" on="1"/>
        <pt x="839" y="1091" on="0"/>
        <pt x="819" y="922" on="0"/>
        <pt x="814" y="776" on="1"/>
        <pt x="812" y="707" on="0"/>
        <pt x="809" y="618" on="0"/>
        <pt x="806" y="552" on="0"/>
        <pt x="801" y="486" on="0"/>
        <pt x="798" y="440" on="1"/>
        <pt x="790" y="334" on="0"/>
        <pt x="771" y="185" on="0"/>
        <pt x="745" y="75" on="0"/>
        <pt x="710" y="-19" on="0"/>
        <pt x="687" y="-72" on="1"/>
        <pt x="626" y="-211" on="0"/>
        <pt x="523" y="-291" on="1"/>
        <pt x="420" y="-371" on="0"/>
      </contour>
    </TTGlyph>
</ttFont>
